<svg width="169" height="38" viewBox="0 0 169 38" fill="none" xmlns="http://www.w3.org/2000/svg">
<path fill-rule="evenodd" clip-rule="evenodd" d="M71.8008 20.3195C71.5095 21.2949 72.0749 22.3427 73.0481 22.6345C74.022 22.9241 75.0807 22.3542 75.361 21.3846C75.6442 20.4125 75.0887 19.3782 74.1239 19.0819C73.154 18.7864 72.09 19.3513 71.8009 20.3193L71.8008 20.3195ZM80.5558 24.5893C82.4251 25.1449 84.361 24.0947 84.9173 22.2227C85.4656 20.3851 84.3949 18.4356 82.5343 17.8813C80.6968 17.3353 78.7622 18.4044 78.2036 20.2759C77.6587 22.0947 78.7248 24.044 80.5557 24.5892L80.5558 24.5893ZM70.0734 17.7752C70.6453 15.8905 69.5983 13.9769 67.7833 13.4066C65.9281 12.8274 63.9479 13.8746 63.3917 15.7003C62.8259 17.5649 63.8685 19.5351 65.718 20.087C67.5705 20.6445 69.5218 19.6082 70.0734 17.7752ZM74.7714 16.9246C76.6078 17.4854 78.5711 16.4481 79.1391 14.618C79.708 12.789 78.6596 10.8114 76.8207 10.2395C74.98 9.66944 72.9803 10.7315 72.4301 12.5753C71.8825 14.4106 72.9341 16.3625 74.7712 16.9247L74.7714 16.9246ZM79.4082 29.4909C79.9726 27.6306 78.9281 25.6634 77.0793 25.1013C75.2526 24.546 73.2675 25.6065 72.7212 27.4296C72.1654 29.2843 73.2075 31.2521 75.0451 31.805C76.879 32.3592 78.8513 31.3108 79.4081 29.4911L79.4082 29.4909ZM70.6428 26.8023C71.202 24.967 70.1613 23.0136 68.3214 22.445C66.4855 21.8785 64.5139 22.9284 63.9494 24.7736C63.3871 26.6114 64.4387 28.5784 66.2795 29.1439C68.1153 29.7068 70.0774 28.6506 70.6428 26.8023ZM83.094 10.9481C88.5835 16.2493 88.7333 24.9438 83.4925 30.372C77.671 36.404 67.8212 35.9292 62.6829 29.2151C56.6949 21.3926 60.6327 10.1267 69.9834 7.60376C74.797 6.3038 79.736 7.70384 83.094 10.9481Z" fill="#FF0000"/>
<path d="M7.10336 33.6563H0V8.0166H7.10336V33.6563ZM22.866 33.6563H14.7479L7.10336 19.179L13.3949 8.0166H21.5807L14.8156 19.2467L22.866 33.6563Z" fill="#FF0000"/>
<path d="M31.3163 33.6563H24.213V8.0166H31.3163V33.6563Z" fill="#FF0000"/>
<path d="M41.7877 33.6563H34.6843V8.0166H41.9568L50.4132 22.1218H50.7176L50.5485 8.0166H57.6519V33.6563H50.3794L41.923 19.4834H41.6186L41.7877 33.6563Z" fill="#FF0000"/>
<path d="M87.1747 30.7136L90.9631 25.2C92.1809 26.5868 94.1089 27.534 95.9693 27.534C97.39 27.534 98.3709 26.9589 98.3709 26.1471C98.3709 25.4706 97.4915 24.7941 95.6311 23.8808C90.4896 21.3439 88.46 18.7732 88.46 14.9847C88.46 10.8242 92.147 7.61074 97.1532 7.61074C99.6901 7.61074 102.227 8.2196 104.764 9.9447L101.009 15.2891C99.6901 14.3082 98.4047 13.9361 97.3223 13.9361C96.1723 13.9361 95.5296 14.3758 95.5296 15.0862C95.5296 15.8303 96.2061 16.6421 97.9988 17.5216C103.174 20.0585 105.339 21.9527 105.339 25.6736C105.339 30.6121 101.483 33.9946 95.9017 33.9946C92.6882 33.9946 89.4072 32.8784 87.1747 30.7136Z" fill="white"/>
<path d="M113.483 6.32537L110.269 2.84134C111.656 0.845639 113.889 0 116.053 0C117.17 0 118.252 0.236779 119.199 0.608859C120.18 0.980941 121.093 1.25154 122.007 1.25154C123.022 1.25154 124.002 0.913289 124.983 0.0338271L128.467 3.11195C126.911 5.37826 124.679 6.25772 122.413 6.25772C121.195 6.25772 119.943 5.98711 118.827 5.54738C118.083 5.27678 117.237 5.07383 116.426 5.07383C115.343 5.07383 114.295 5.41208 113.483 6.32537ZM106.346 20.8365C106.346 13.4287 111.961 7.61074 119.368 7.61074C126.742 7.61074 132.425 13.4287 132.425 20.8365C132.425 28.2105 126.742 33.9946 119.368 33.9946C111.961 33.9946 106.346 28.2105 106.346 20.8365ZM119.368 27.0604C122.649 27.0604 125.322 24.5911 125.322 20.8365C125.322 17.2172 122.717 14.545 119.368 14.545C116.02 14.545 113.449 17.2848 113.449 20.8365C113.449 24.5235 116.087 27.0604 119.368 27.0604Z" fill="white"/>
<path d="M134.972 33.6564V8.01664H150.261V14.1052H142.075V17.8599H150.159V23.6102H142.075V27.5678H150.261V33.6564H134.972Z" fill="white"/>
<path d="M168.594 33.6564H153.305V8.01664H160.408V27.5678H168.594V33.6564Z" fill="white"/>
</svg>
