<svg width="24" height="24" viewBox="0 0 24 24" fill="none" xmlns="http://www.w3.org/2000/svg">
<path d="M4.43036 7.57826C0.247757 11.6826 2.40109 16.6438 3.57836 18.2663C8.81667 24.5002 17.3661 22.0314 20.2039 17.3886C20.9113 16.1698 23.5551 9.44407 16.6413 5.79742L4.43036 7.57826Z" fill="#F93208"/>
<path d="M7.32178 7.34588L8.0317 6.02929L12.2525 5.28064L13.9046 6.64887L7.32178 7.34588Z" fill="#F93208"/>
<path d="M7.29545 2.78493L8.62802 2L9.63201 4.29999C10.1955 3.36053 11.681 1.87563 13.3376 3.60632C12.6351 3.79408 12.2208 4.17918 12.1876 4.86587C14.438 4.24631 16.8448 5.34324 17.1711 6.2167C15.5439 5.57569 13.056 7.7586 10.9644 6.56351C10.9658 8.79901 9.08971 9.03541 8.00725 9.10079C8.31587 8.35845 8.83801 7.61581 8.22627 6.87391C7.09433 8.08802 6.16476 8.45904 3.29761 7.56751C4.02212 7.31804 5.5031 5.8751 6.93028 5.8699C5.9236 5.50333 5.10414 5.55979 4.28334 5.65073C4.71677 5.06217 6.08853 3.39264 8.53667 4.3913L7.29545 2.78493Z" fill="#02902E"/>
</svg>
